<svg width="256" height="244" viewBox="0 0 256 244" fill="none" xmlns="http://www.w3.org/2000/svg">
<g clip-path="url(#clip0_201_10)">
<path d="M214.27 128.006C214.27 127.576 214.152 127.269 213.91 127.069C213.641 126.853 213.177 126.738 212.532 126.738H211.603V129.29H212.724C213.758 129.29 214.27 128.86 214.27 128.006ZM215.717 133.326H214.441L213.628 131.531C213.214 130.631 212.773 130.181 212.29 130.181H211.603V133.326H210.552V125.842H212.658C213.595 125.842 214.298 126.045 214.781 126.468C215.19 126.832 215.394 127.298 215.394 127.879C215.394 128.394 215.227 128.828 214.891 129.187C214.564 129.552 214.094 129.797 213.492 129.924V129.956C213.91 130.054 214.327 130.512 214.731 131.339L215.717 133.33V133.326ZM218.048 129.658C218.048 128.186 217.545 126.942 216.543 125.957C215.537 124.971 214.31 124.476 212.863 124.476C211.37 124.476 210.127 124.971 209.141 125.965C208.155 126.963 207.665 128.198 207.665 129.658C207.665 131.151 208.176 132.398 209.19 133.392C210.192 134.385 211.419 134.876 212.863 134.876C214.298 134.876 215.525 134.381 216.535 133.375C217.545 132.385 218.048 131.143 218.048 129.658ZM218.756 129.625C218.756 131.278 218.187 132.664 217.047 133.781C215.905 134.905 214.507 135.465 212.834 135.465C211.149 135.465 209.751 134.913 208.638 133.83C207.526 132.73 206.974 131.347 206.974 129.671C206.974 128.03 207.538 126.652 208.667 125.52C209.795 124.391 211.202 123.827 212.883 123.827C214.531 123.827 215.914 124.366 217.034 125.442C218.183 126.546 218.756 127.937 218.756 129.625Z" fill="white"/>
<path d="M58.7996 150.494H55.1723V129.735C55.1723 128.096 55.2803 126.1 55.4733 123.744H55.3915C55.0519 125.122 54.741 126.12 54.4672 126.738L43.9242 150.494H42.1574L31.5937 126.91C31.296 126.251 30.9845 125.192 30.6695 123.744H30.591C30.7022 124.983 30.7644 126.991 30.7644 129.776V150.494H27.2676V119.581H32.0525L41.5365 141.137C42.252 142.761 42.7143 143.996 42.9391 144.839H43.0896C43.7069 143.149 44.1977 141.882 44.57 141.047L54.2582 119.581H58.7977V150.494H58.7996Z" fill="white"/>
<path d="M69.9574 150.494H66.4325V128.418H69.9574V150.494ZM70.567 120.504C70.567 121.155 70.338 121.698 69.8838 122.144C69.4382 122.59 68.8863 122.815 68.2398 122.815C67.61 122.815 67.062 122.599 66.6124 122.169C66.1626 121.735 65.9414 121.183 65.9414 120.504C65.9414 119.866 66.1639 119.323 66.6124 118.881C67.062 118.439 67.61 118.227 68.2398 118.227C68.886 118.227 69.4382 118.439 69.8838 118.881C70.338 119.323 70.567 119.866 70.567 120.504Z" fill="white"/>
<path d="M91.9881 149.472C90.295 150.511 88.2747 151.026 85.9393 151.026C82.7743 151.026 80.2263 149.975 78.2797 147.877C76.3902 145.841 75.4375 143.211 75.4375 139.988C75.4375 136.373 76.472 133.445 78.5577 131.22C80.6313 128.991 83.4205 127.879 86.9294 127.879C88.8473 127.879 90.5485 128.255 92.0372 128.999V132.627C90.3892 131.47 88.647 130.897 86.7779 130.897C84.5286 130.897 82.7007 131.682 81.2814 133.249C79.8049 134.852 79.0567 136.995 79.0567 139.669C79.0567 142.238 79.7398 144.27 81.0975 145.771C82.4593 147.264 84.2711 148.012 86.5571 148.012C88.4873 148.012 90.295 147.378 91.9881 146.115V149.472Z" fill="white"/>
<path d="M108.85 131.999C108.228 131.521 107.333 131.288 106.151 131.288C104.716 131.288 103.509 131.93 102.532 133.226C101.423 134.674 100.871 136.678 100.871 139.238V150.493H97.3379V128.417H100.871V132.969H100.956C101.476 131.357 102.278 130.118 103.349 129.239C104.351 128.437 105.484 128.032 106.731 128.032C107.672 128.032 108.371 128.134 108.849 128.333V131.998L108.85 131.999Z" fill="white"/>
<path d="M128.543 139.496C128.543 136.67 127.905 134.511 126.629 133.03C125.39 131.607 123.66 130.895 121.431 130.895C119.235 130.895 117.473 131.615 116.155 133.055C114.761 134.592 114.066 136.764 114.066 139.582C114.066 142.224 114.728 144.297 116.066 145.777C117.395 147.266 119.186 148.01 121.431 148.01C123.754 148.01 125.533 147.254 126.752 145.749C127.946 144.277 128.543 142.195 128.543 139.496ZM132.167 139.371C132.167 142.888 131.173 145.715 129.193 147.833C127.206 149.96 124.531 151.023 121.17 151.023C117.857 151.023 115.219 149.96 113.285 147.833C111.391 145.784 110.438 143.077 110.438 139.711C110.438 135.871 111.514 132.91 113.673 130.808C115.669 128.857 118.339 127.875 121.685 127.875C124.977 127.875 127.549 128.902 129.402 130.935C131.238 132.979 132.167 135.793 132.167 139.371Z" fill="white"/>
<path d="M149.69 144.588C149.69 146.395 149.016 147.892 147.662 149.086C146.186 150.379 144.157 151.025 141.605 151.025C139.515 151.025 137.683 150.587 136.129 149.696V145.896C137.859 147.303 139.769 148.011 141.867 148.011C144.664 148.011 146.067 146.98 146.067 144.927C146.067 144.064 145.759 143.349 145.139 142.796C144.517 142.232 143.31 141.557 141.515 140.768C139.667 139.958 138.35 139.128 137.573 138.265C136.64 137.243 136.17 135.914 136.17 134.278C136.17 132.446 136.902 130.92 138.35 129.706C139.801 128.487 141.666 127.877 143.956 127.877C145.711 127.877 147.282 128.221 148.676 128.912V132.47C147.22 131.419 145.556 130.896 143.666 130.896C142.497 130.896 141.556 131.187 140.857 131.754C140.149 132.335 139.793 133.076 139.793 133.979C139.793 134.957 140.091 135.717 140.681 136.261C141.204 136.764 142.317 137.378 143.993 138.093C145.879 138.883 147.241 139.701 148.071 140.539C149.146 141.598 149.69 142.948 149.69 144.588Z" fill="white"/>
<path d="M171.285 139.496C171.285 136.67 170.647 134.511 169.367 133.03C168.132 131.607 166.398 130.895 164.174 130.895C161.977 130.895 160.215 131.615 158.89 133.055C157.499 134.592 156.808 136.764 156.808 139.582C156.808 142.224 157.471 144.297 158.796 145.777C160.141 147.266 161.933 148.01 164.174 148.01C166.5 148.01 168.275 147.254 169.494 145.749C170.688 144.277 171.285 142.195 171.285 139.496ZM174.917 139.371C174.917 142.888 173.915 145.715 171.932 147.833C169.952 149.96 167.278 151.023 163.916 151.023C160.599 151.023 157.961 149.96 156.027 147.833C154.133 145.784 153.181 143.077 153.181 139.711C153.181 135.871 154.264 132.91 156.412 130.808C158.407 128.857 161.082 127.875 164.431 127.875C167.723 127.875 170.292 128.902 172.14 130.935C173.981 132.979 174.917 135.793 174.917 139.371Z" fill="white"/>
<path d="M190.487 120.917C189.792 120.532 189.019 120.336 188.139 120.336C185.665 120.336 184.438 121.894 184.438 125.015V128.417H189.612V131.411H184.438V150.493H180.901V131.411H177.146V128.417H180.901V124.839C180.901 122.409 181.645 120.503 183.158 119.129C184.455 117.935 186.041 117.342 187.927 117.342C189.019 117.342 189.87 117.473 190.487 117.727V120.917Z" fill="white"/>
<path d="M204.433 150.271C203.599 150.75 202.487 150.987 201.112 150.987C197.26 150.987 195.334 148.815 195.334 144.472V131.414H191.547V128.416H195.334V123.03C196.463 122.674 197.636 122.286 198.876 121.885V128.416H204.433V131.414H198.876V143.871C198.876 145.352 199.118 146.411 199.624 147.024C200.135 147.658 200.969 147.969 202.147 147.969C203.026 147.969 203.787 147.733 204.433 147.257V150.271Z" fill="white"/>
<path d="M13.4148 236.653C13.4148 238.383 12.7974 239.88 11.5499 241.144C10.3067 242.403 8.79745 243.037 7.02679 243.037C5.29671 243.037 3.82444 242.403 2.61817 241.144C1.41156 239.88 0.810547 238.383 0.810547 236.653C0.810547 234.874 1.41156 233.373 2.61817 232.13C3.82444 230.883 5.29671 230.265 7.02679 230.265C8.79745 230.265 10.3067 230.891 11.5499 232.155C12.7974 233.418 13.4148 234.919 13.4148 236.653Z" fill="white"/>
<path d="M92.5321 241.737H81.0075L39.1748 177.133C38.1972 175.579 37.3547 173.89 36.6392 172.046H36.2953C36.593 173.775 36.7455 177.489 36.7455 183.178V241.737H27.2451V160.685H39.5755L80.1569 224.27C81.7724 226.793 82.8763 228.601 83.4368 229.689H83.6625C83.2862 227.358 83.0903 223.383 83.0903 217.772V160.685H92.5331V241.737H92.5321Z" fill="white"/>
<path d="M153.436 241.737H110.479V160.685H151.571V169.273H119.971V196.236H149.253V204.828H119.971V233.145H153.436V241.737Z" fill="white"/>
<path d="M218.596 169.274H195.248V241.738H185.752V169.274H162.359V160.682H218.596V169.274Z" fill="white"/>
<path d="M89.3105 20.6884C98.4753 48.7145 101.947 98.7105 128.747 98.7105C130.788 98.7105 132.849 98.5109 134.918 98.1173C110.556 92.437 107.669 42.9848 92.8031 17.3755C91.6375 18.4348 90.4801 19.539 89.3105 20.6884Z" fill="url(#paint0_linear_201_10)"/>
<path d="M92.8027 17.3754C107.669 42.9848 110.556 92.4369 134.918 98.1173C136.832 97.7656 138.75 97.2339 140.672 96.5632C118.805 85.8484 112.76 37.8278 95.8781 14.709C94.8557 15.5599 93.8292 16.4515 92.8027 17.3754Z" fill="url(#paint1_linear_201_10)"/>
<path d="M114.222 2.14551C112.185 2.14551 110.12 2.34504 108.047 2.73868C102.624 3.76106 97.1153 6.09609 91.5615 9.62954C93.0786 11.1263 94.5221 12.8397 95.8799 14.7089C101.528 10.0221 107.139 6.55835 112.729 4.47657C114.827 3.69957 116.917 3.11491 119.015 2.7305C117.502 2.34569 115.907 2.14551 114.222 2.14551Z" fill="#14559A"/>
<path d="M157.742 86.6865C159.979 84.9077 162.22 82.9404 164.465 80.7936C155.153 52.898 151.82 2.18652 124.832 2.18652C122.902 2.18652 120.955 2.36645 119.013 2.72631C143.596 8.8405 146.745 62.3247 157.742 86.6865Z" fill="url(#paint2_linear_201_10)"/>
<path d="M119.014 2.72863C117.501 2.34423 115.906 2.14404 114.221 2.14404L124.833 2.18293C122.903 2.18293 120.956 2.36286 119.014 2.72701" fill="#3092C4"/>
<path d="M157.271 92.6128C156.215 91.6067 155.214 90.5026 154.228 89.3247C149.688 92.5391 145.165 94.9766 140.671 96.5633C142.27 97.3446 143.946 97.9254 145.726 98.2853C147.104 98.5666 148.531 98.7106 150.032 98.7106C155.075 98.7106 159.062 98.1135 162.456 96.4858C160.587 95.4755 158.874 94.1668 157.271 92.6128Z" fill="#1969BC"/>
<path d="M112.728 4.48122C134.746 15.9976 136.66 68.1487 154.229 89.3248C155.407 88.4948 156.573 87.6154 157.738 86.6868C146.741 62.325 143.596 8.83646 119.017 2.72656C116.919 3.11915 114.826 3.70025 112.728 4.48122Z" fill="url(#paint3_linear_201_10)"/>
<path d="M95.8779 14.709C112.76 37.8278 118.804 85.8484 140.672 96.5632C145.166 94.9764 149.689 92.539 154.229 89.3245C136.66 68.1484 134.746 15.9973 112.727 4.48096C107.137 6.55845 101.526 10.0222 95.8779 14.709Z" fill="url(#paint4_linear_201_10)"/>
<path d="M78.5095 20.0135C75.8635 25.9968 73.1602 33.861 69.8926 44.126C76.391 34.9691 82.869 27.0804 89.3102 20.6885C88.4228 17.9605 87.4699 15.4455 86.4434 13.2041C83.8097 15.2204 81.1554 17.4903 78.5095 20.0135Z" fill="url(#paint5_linear_201_10)"/>
<path d="M88.7895 11.479C88.0124 12.0352 87.2315 12.6038 86.4463 13.2048C87.4726 15.446 88.4214 17.9612 89.309 20.6888C90.4784 19.5437 91.6398 18.4356 92.8012 17.3762C91.5541 15.2332 90.229 13.2538 88.7895 11.479Z" fill="#2B74B1"/>
<path d="M91.5618 9.62939C90.6375 10.2144 89.7175 10.8317 88.7891 11.4779C90.2286 13.2528 91.5536 15.2321 92.8051 17.3794C93.8317 16.4509 94.858 15.5554 95.8805 14.7087C94.5227 12.8399 93.0792 11.1262 91.5618 9.62939Z" fill="#125A9E"/>
<path d="M241.747 0.0112608C229.294 48.0357 203.284 86.6092 181.478 96.3343H181.437C181.04 96.5143 180.647 96.6779 180.259 96.8372C180.205 96.8696 180.157 96.8736 180.116 96.8931C180.001 96.9393 179.895 96.9749 179.78 97.0207C179.727 97.0531 179.678 97.0636 179.629 97.0831C179.445 97.1487 179.265 97.2042 179.085 97.2761C179.007 97.3085 178.934 97.3288 178.86 97.3547C178.778 97.3871 178.684 97.4171 178.59 97.4431C178.508 97.4755 178.423 97.499 178.328 97.5346C178.251 97.567 178.169 97.5808 178.095 97.6132C177.936 97.6594 177.789 97.6983 177.629 97.7538C177.564 97.7538 177.503 97.7895 177.433 97.8065C177.335 97.8389 177.224 97.8624 177.118 97.8916C177.044 97.924 176.983 97.9345 176.905 97.9507C176.795 97.9831 176.672 98.0131 176.562 98.0391C176.414 98.0715 176.284 98.1015 176.145 98.1307C177.13 98.4948 178.157 98.6787 179.265 98.6787C199.942 98.6787 220.791 61.6227 255.287 0H241.742L241.747 0.0112608Z" fill="url(#paint6_linear_201_10)"/>
<path d="M65.4017 4.09442C65.4147 4.09442 65.4309 4.06201 65.439 4.06201C65.4552 4.06201 65.4803 4.06201 65.4884 4.02961H65.5144C65.6288 3.99072 65.7352 3.94454 65.8497 3.90201C65.8788 3.90201 65.8942 3.90201 65.9153 3.86961C65.9444 3.86961 65.9728 3.8372 66.0013 3.83315C66.1241 3.79427 66.2467 3.74809 66.3613 3.70556H66.3807C66.6548 3.62382 66.9083 3.52239 67.1741 3.42752C67.2113 3.42752 67.2478 3.39512 67.2925 3.39512C67.4031 3.35947 67.5176 3.31977 67.6319 3.29369C67.6854 3.26128 67.7383 3.26128 67.7873 3.24427C67.9058 3.20863 68.0206 3.16893 68.1309 3.14284C68.1803 3.14284 68.2251 3.11044 68.2617 3.1072C68.6421 3.00253 69.0183 2.90434 69.3987 2.81272C69.4521 2.81272 69.4969 2.78031 69.554 2.77707C69.6643 2.74467 69.7668 2.72765 69.8853 2.71145C69.9347 2.67905 69.9917 2.67905 70.049 2.66203C70.1592 2.62963 70.2655 2.62639 70.3843 2.59965H70.462C70.6911 2.55348 70.9242 2.51459 71.1532 2.47206H71.2923C71.4025 2.43965 71.5007 2.43641 71.6113 2.41616C71.672 2.41616 71.7339 2.38375 71.7912 2.38375C71.8933 2.38375 71.9957 2.35135 72.0978 2.33758C72.1512 2.33758 72.2041 2.33758 72.2656 2.30517C72.5067 2.27277 72.7563 2.2598 73.0099 2.23955C72.2942 2.17069 71.5581 2.125 70.8097 2.125C47.5233 2.125 15.4401 45.3319 0.987305 101.286H3.77235C8.39773 93.0377 12.5528 85.2346 16.3521 77.9099C26.4739 38.2774 47.0898 11.2488 65.4032 4.08802" fill="url(#paint7_linear_201_10)"/>
<path d="M78.5088 20.0135C81.1549 17.4904 83.809 15.2205 86.4427 13.2045C85.8416 11.8876 85.22 10.6688 84.5532 9.55225C82.4227 12.1369 80.476 15.5477 78.5088 20.0135Z" fill="#0D82CA"/>
<path d="M80.4224 4.42168C81.9437 5.69763 83.3054 7.4522 84.5529 9.55432C84.9455 9.07172 85.3424 8.62583 85.7553 8.2087C84.0255 6.59338 82.1564 5.26834 80.1279 4.27051C80.2098 4.31587 80.2915 4.35233 80.3766 4.3883C80.3766 4.3883 80.409 4.42071 80.4227 4.42071" fill="#0D82CA"/>
<path d="M16.3506 77.9145C37.584 36.9975 47.6445 11.1019 65.4017 4.09229C47.0924 11.2576 26.4724 38.2859 16.3506 77.9145Z" fill="url(#paint8_linear_201_10)"/>
<path d="M85.7541 8.20801C85.3412 8.62944 84.9486 9.07112 84.5518 9.55371C85.2185 10.67 85.8399 11.8848 86.4454 13.2056C87.2306 12.6046 88.0116 12.0359 88.7886 11.4798C87.8277 10.2938 86.8135 9.19377 85.7541 8.20801Z" fill="#127BCA"/>
<path d="M25.9905 101.107C25.8597 101.139 25.7288 101.139 25.6061 101.153H25.5325C25.4219 101.153 25.3074 101.186 25.2053 101.186H25.152C24.8863 101.218 24.6244 101.218 24.3709 101.238H24.2891C45.7801 100.637 55.6034 89.8768 60.4782 74.2708C64.1834 62.4396 67.2262 52.473 69.8926 44.1099C60.8913 56.7796 51.8491 71.8825 42.7579 88.8014C38.3738 96.9561 31.7077 100.363 25.9904 101.091" fill="url(#paint9_linear_201_10)"/>
<path d="M25.9902 101.099C31.7075 100.371 38.3737 96.9681 42.7577 88.8094C51.849 71.8947 60.8953 56.7876 69.8884 44.1179C73.1601 33.8487 75.8593 25.9887 78.5094 20.0054C60.5845 37.0674 42.5901 65.4373 25.9902 101.091" fill="url(#paint10_linear_201_10)"/>
<path d="M16.3502 77.9155C12.5511 85.2402 8.39606 93.0433 3.77051 101.292H11.8722C12.9437 93.1001 14.4651 85.289 16.3502 77.9194" fill="#05A1E6"/>
<path d="M72.2647 2.32598C72.1991 2.32598 72.1502 2.35838 72.093 2.35838C71.9948 2.39079 71.8924 2.39079 71.7903 2.40132C71.7295 2.40132 71.6719 2.40132 71.6104 2.43372C71.4998 2.46613 71.3977 2.46937 71.2913 2.48962C71.2419 2.48962 71.1932 2.48962 71.1523 2.52203C70.919 2.56091 70.6901 2.60385 70.4611 2.64306H70.3833C70.2649 2.67546 70.1583 2.69248 70.048 2.70868C69.9905 2.74108 69.9335 2.74108 69.8802 2.75405C69.7699 2.78645 69.6593 2.80022 69.553 2.81967C69.4955 2.85207 69.451 2.85207 69.3976 2.85531C69.0173 2.94694 68.641 3.04513 68.2607 3.14979C68.2202 3.14979 68.1789 3.1822 68.1298 3.18868C68.0154 3.22108 67.9048 3.2543 67.7863 3.29011C67.7369 3.32251 67.68 3.32251 67.6309 3.33547C67.5164 3.36788 67.4018 3.4011 67.2914 3.4369C67.2469 3.4369 67.2097 3.46931 67.1688 3.46931C66.907 3.56741 66.6494 3.6656 66.3795 3.74742C66.265 3.78307 66.1423 3.82917 66.0196 3.8717C65.9702 3.9041 65.9254 3.91139 65.8684 3.93408C65.7539 3.96972 65.6394 4.0159 65.533 4.05843C65.4925 4.09084 65.4513 4.09408 65.4228 4.11109C47.6656 11.1207 37.6051 37.0163 16.3717 77.9333C14.4864 85.3029 12.9609 93.114 11.8936 101.305H13.0305C16.2327 101.305 17.1365 101.273 20.8212 101.273H21.0093H21.5574H21.7455H21.7988H21.9869H22.0932H22.1669H22.3141H22.7722H23.2302H23.6146H23.7167H24.3915C24.645 101.241 24.9068 101.241 25.1726 101.22H25.2217C25.3323 101.22 25.4425 101.188 25.5489 101.188H25.6264C25.7448 101.188 25.88 101.156 26.0108 101.142C42.6107 65.4884 60.605 37.1184 78.5299 20.0564C80.5011 15.5906 82.4437 12.1798 84.5704 9.59937C83.3271 7.49734 81.9652 5.7388 80.4439 4.46252C80.4439 4.46252 80.4026 4.46252 80.3993 4.43012C80.3133 4.39447 80.2319 4.35154 80.1459 4.30909C80.0597 4.26291 79.9862 4.22726 79.8965 4.18149C79.8187 4.14909 79.7287 4.10615 79.6511 4.0637C79.5448 4.03129 79.4588 3.98512 79.3649 3.94258C79.2871 3.91018 79.2176 3.87696 79.1398 3.84448C78.9801 3.7821 78.8208 3.71688 78.6695 3.64818C78.5998 3.61578 78.5347 3.59877 78.4689 3.57284C78.3586 3.53315 78.2317 3.48122 78.1172 3.43212C78.0597 3.39972 77.9945 3.39324 77.9291 3.36974C77.7616 3.31384 77.5979 3.25527 77.4424 3.20286H77.4019C77.2137 3.14048 77.0297 3.09495 76.8375 3.04253C76.7929 3.01013 76.7556 3.01013 76.7108 3.00365C76.543 2.95747 76.3958 2.91202 76.2364 2.86949C76.1959 2.86949 76.1587 2.83709 76.1262 2.83709C75.7418 2.73566 75.3451 2.65392 74.9443 2.57865C74.903 2.57865 74.8625 2.54625 74.8216 2.54625C74.6499 2.51384 74.4822 2.48387 74.3104 2.46443C74.2691 2.43202 74.2448 2.43202 74.2084 2.43202C74.0039 2.39962 73.8035 2.37612 73.603 2.35344H73.4967C73.3332 2.32103 73.182 2.31779 73.0305 2.30078C72.7727 2.33319 72.5275 2.34696 72.2862 2.36964" fill="url(#paint11_linear_201_10)"/>
<path d="M193.105 26.5976C189.02 39.6845 185.711 50.4811 182.832 59.3638C194.042 43.9377 205.084 24.5322 215.598 2.1377C203.333 5.98977 196.79 14.8073 193.105 26.5976Z" fill="url(#paint12_linear_201_10)"/>
<path d="M183.188 95.5164C182.615 95.8076 182.043 96.0847 181.479 96.3343C203.284 86.6091 229.295 48.0357 241.748 0.0112305H239.224C210.613 51.1193 201.411 85.3332 183.188 95.5164Z" fill="url(#paint13_linear_201_10)"/>
<path d="M168.949 91.2225C173.693 85.4316 177.558 75.588 182.834 59.3643C176.748 67.7235 170.622 74.9091 164.491 80.7694C164.491 80.8018 164.491 80.8018 164.459 80.8221C165.797 84.8299 167.264 88.3673 168.937 91.2218" fill="#079AE1"/>
<path d="M168.948 91.2227C167.333 93.1939 165.624 94.6949 163.722 95.8073C163.305 96.0495 162.884 96.2775 162.454 96.4862C164.462 97.5698 166.654 98.2938 169.108 98.584C169.467 98.6197 169.823 98.6529 170.196 98.6789H170.261C170.428 98.6789 170.605 98.6789 170.785 98.7113H170.857H171.393H171.97H172.15H172.559C172.624 98.7113 172.693 98.7113 172.758 98.6789C172.886 98.6789 173.02 98.6789 173.151 98.6465H173.197H173.344C173.478 98.6465 173.625 98.6141 173.769 98.6003H173.802C173.845 98.6003 173.89 98.5679 173.933 98.5679C174.083 98.5355 174.24 98.5217 174.387 98.4991H174.521C174.688 98.4666 174.86 98.4464 175.032 98.414H175.064H175.114C175.457 98.3484 175.793 98.2832 176.132 98.1981C173.318 97.1674 170.963 94.7382 168.934 91.2784" fill="#1969BC"/>
<path d="M128.747 98.7112C130.788 98.7112 132.849 98.5117 134.918 98.1141C136.832 97.7667 138.75 97.2347 140.672 96.564C142.272 97.3453 143.948 97.926 145.723 98.2859C147.101 98.5672 148.533 98.7112 150.034 98.7112H128.747Z" fill="#1E5CB3"/>
<path d="M150.034 98.7111C155.072 98.7111 159.064 98.114 162.454 96.4863C164.462 97.57 166.654 98.294 169.108 98.5845C169.468 98.6201 169.824 98.6533 170.196 98.6793H170.262C170.428 98.6793 170.605 98.6793 170.785 98.7117H170.86H171.396H150.02L150.034 98.7111Z" fill="#1E5CB3"/>
<path d="M171.409 98.7115H171.99H172.17H172.575C172.644 98.7115 172.709 98.7115 172.774 98.6791C172.902 98.6791 173.036 98.6791 173.171 98.6467H173.214H173.365C173.499 98.6467 173.646 98.6143 173.786 98.6013H173.822C173.865 98.6013 173.907 98.5689 173.949 98.5689C174.1 98.5365 174.257 98.5235 174.403 98.5001C174.453 98.5001 174.492 98.5 174.544 98.4676C174.711 98.4352 174.883 98.4182 175.055 98.3859H175.088H175.137C175.481 98.3203 175.816 98.255 176.155 98.1699C177.141 98.5337 178.167 98.718 179.275 98.718L171.415 98.7504L171.409 98.7115Z" fill="#1D60B5"/>
<path d="M164.472 80.8229V80.7905C162.226 82.9374 159.985 84.9048 157.748 86.6835C156.578 87.612 155.413 88.4912 154.235 89.3216C155.221 90.4993 156.223 91.6035 157.278 92.6096C158.881 94.1634 160.595 95.4724 162.464 96.4824C162.889 96.2729 163.314 96.0446 163.727 95.8035C165.633 94.6911 167.342 93.1903 168.958 91.2191C167.285 88.3646 165.817 84.8268 164.48 80.819" fill="#175FAB"/>
<path d="M231.233 0.0112305H220.625H219.569H218.572H218.533C217.846 0.0436355 217.179 0.0671292 216.521 0.109418C216.21 0.776233 215.891 1.44297 215.584 2.11367C205.07 24.5082 194.028 43.9137 182.818 59.3398C177.546 75.5632 173.678 85.4072 168.934 91.1981C170.962 94.6579 173.322 97.091 176.127 98.1217C176.209 98.0893 176.274 98.0893 176.348 98.0723H176.393C176.443 98.0723 176.496 98.0399 176.549 98.0399C176.663 98.0075 176.786 97.9872 176.901 97.9516C176.974 97.9192 177.035 97.9159 177.109 97.8924C177.216 97.86 177.326 97.8365 177.424 97.8106C177.49 97.7782 177.555 97.7677 177.62 97.7547C177.784 97.702 177.931 97.6631 178.087 97.614C178.16 97.5816 178.238 97.5548 178.32 97.5354C178.41 97.503 178.5 97.4795 178.582 97.4405C178.676 97.4081 178.77 97.3911 178.852 97.3555C178.925 97.3231 179.003 97.3028 179.072 97.2737C179.256 97.208 179.436 97.1526 179.62 97.0806C179.67 97.0806 179.719 97.0352 179.772 97.0247C179.882 96.9785 179.997 96.9429 180.107 96.8938C180.148 96.8614 180.197 96.8581 180.25 96.8411C180.635 96.6808 181.031 96.5172 181.428 96.3383H181.469C182.034 96.0897 182.606 95.8106 183.175 95.5204C201.402 85.3372 210.604 51.1233 239.215 0.0152001H231.224L231.233 0.0112305Z" fill="url(#paint14_linear_201_10)"/>
<path d="M73.0098 2.25713C73.0551 2.25713 73.0958 2.25713 73.1406 2.28953C73.2509 2.28953 73.3614 2.28953 73.4719 2.32518H73.5825C73.7827 2.35758 73.9832 2.37459 74.1877 2.40376C74.225 2.40376 74.2574 2.40376 74.2898 2.43616C74.4573 2.46857 74.6292 2.4953 74.801 2.52123C74.8382 2.52123 74.8871 2.55363 74.9279 2.55363C75.3206 2.63222 75.7213 2.71396 76.1058 2.81538C76.1422 2.81538 76.1795 2.84779 76.2121 2.84779C76.3757 2.88668 76.5229 2.93609 76.6864 2.98187C76.7359 2.98187 76.7722 3.01427 76.8174 3.02156C77.0097 3.07098 77.1895 3.11975 77.3776 3.18189C77.3857 3.18189 77.3971 3.18189 77.419 3.21429C77.5782 3.2629 77.7419 3.32552 77.9097 3.3811C77.9753 3.4135 78.0363 3.42727 78.0978 3.44348C78.2123 3.49289 78.3393 3.54158 78.4495 3.58744C78.5151 3.58744 78.5804 3.6328 78.6497 3.6563C78.8009 3.72516 78.9606 3.78713 79.1159 3.85259C79.1978 3.88499 79.2671 3.92145 79.345 3.9507C79.435 3.99687 79.5289 4.03908 79.627 4.07181C79.7088 4.1107 79.7988 4.15355 79.8763 4.18952C79.9624 4.2357 80.0439 4.27134 80.1259 4.31712C82.1544 5.31503 84.0234 6.64429 85.7533 8.25563C86.3913 7.58492 87.0578 6.98357 87.749 6.44378C83.9661 3.76096 79.6802 2.23145 74.7358 2.23145C74.1632 2.23145 73.5907 2.26385 73.01 2.30679" fill="#7DCBEC"/>
<path d="M85.7539 8.20784C86.8131 9.19328 87.8273 10.2936 88.7884 11.4796C89.7167 10.8335 90.6369 10.2118 91.5612 9.63107C90.3506 8.4205 89.0747 7.33266 87.7455 6.396C87.0544 6.93189 86.3919 7.53714 85.7539 8.20784Z" fill="#5EC5ED"/>
<path d="M73.0088 2.25631C73.5895 2.20723 74.1621 2.18678 74.7346 2.18678C79.679 2.18678 83.965 3.71631 87.7479 6.39502C91.7394 3.246 96.5651 2.14589 103.268 2.14589H70.8086C71.557 2.14589 72.289 2.19087 73.0088 2.25631Z" fill="url(#paint15_linear_201_10)"/>
<path d="M103.268 2.14585C96.5653 2.14585 91.7395 3.24596 87.748 6.39498C89.0731 7.33151 90.3491 8.41935 91.5596 9.62988C97.1174 6.09644 102.622 3.75716 108.049 2.73475C110.118 2.34624 112.184 2.14585 114.22 2.14585H103.268Z" fill="url(#paint16_linear_201_10)"/>
<path d="M182.832 59.3724C185.715 50.4815 189.016 39.6891 193.109 26.598C196.798 14.8035 203.329 5.98622 215.594 2.13804C215.918 1.47941 216.224 0.800523 216.539 0.133789C196.545 1.33221 187.2 11.5029 182.497 26.5653C174.272 52.8616 169.291 69.9072 164.494 80.7693C170.62 74.9129 176.747 67.7234 182.832 59.3724Z" fill="url(#paint17_linear_201_10)"/>
<path d="M212.165 91.7063H209.899V98.7487H208.975V91.7063H206.701V90.8682H212.165V91.7063Z" fill="white"/>
<path d="M221.443 98.7472H220.523V93.4552C220.523 93.0381 220.555 92.5271 220.598 91.9257C220.503 92.2856 220.425 92.5352 220.353 92.6946L217.67 98.7472H217.22L214.529 92.7397C214.45 92.5728 214.372 92.302 214.287 91.9257H214.254C214.287 92.2431 214.297 92.7561 214.297 93.4677V98.7472H213.414V90.8667H214.633L217.05 96.3671C217.233 96.7803 217.347 97.0992 217.406 97.3119H217.441C217.602 96.8784 217.732 96.5552 217.822 96.3425L220.288 90.8667H221.449V98.7472H221.443Z" fill="white"/>
</g>
<defs>
<linearGradient id="paint0_linear_201_10" x1="112.113" y1="1.50211" x2="112.113" y2="122.806" gradientUnits="userSpaceOnUse">
<stop stop-color="#0994DC"/>
<stop offset="0.350006" stop-color="#66CEF5"/>
<stop offset="0.846161" stop-color="#127BCA"/>
<stop offset="1" stop-color="#127BCA"/>
</linearGradient>
<linearGradient id="paint1_linear_201_10" x1="116.738" y1="-1.56913" x2="116.738" y2="122.826" gradientUnits="userSpaceOnUse">
<stop stop-color="#0E76BC"/>
<stop offset="0.360001" stop-color="#36AEE8"/>
<stop offset="0.846161" stop-color="#00ADEF"/>
<stop offset="1" stop-color="#00ADEF"/>
</linearGradient>
<linearGradient id="paint2_linear_201_10" x1="141.738" y1="95.9154" x2="141.738" y2="-3.06427" gradientUnits="userSpaceOnUse">
<stop stop-color="#1C63B7"/>
<stop offset="0.5" stop-color="#33BDF2"/>
<stop offset="1" stop-color="#33BDF2" stop-opacity="0.419608"/>
</linearGradient>
<linearGradient id="paint3_linear_201_10" x1="135.233" y1="-14.1731" x2="135.233" y2="114.982" gradientUnits="userSpaceOnUse">
<stop stop-color="#166AB8"/>
<stop offset="0.399994" stop-color="#36AEE8"/>
<stop offset="0.846161" stop-color="#0798DD"/>
<stop offset="1" stop-color="#0798DD"/>
</linearGradient>
<linearGradient id="paint4_linear_201_10" x1="125.053" y1="-13.4945" x2="125.053" y2="123.844" gradientUnits="userSpaceOnUse">
<stop stop-color="#124379"/>
<stop offset="0.389999" stop-color="#1487CB"/>
<stop offset="0.780228" stop-color="#165197"/>
<stop offset="1" stop-color="#165197"/>
</linearGradient>
<linearGradient id="paint5_linear_201_10" x1="69.8926" y1="28.6652" x2="89.3102" y2="28.6652" gradientUnits="userSpaceOnUse">
<stop stop-color="#33BDF2" stop-opacity="0.698039"/>
<stop offset="1" stop-color="#1DACD8"/>
</linearGradient>
<linearGradient id="paint6_linear_201_10" x1="215.723" y1="93.4353" x2="215.723" y2="-2.98462" gradientUnits="userSpaceOnUse">
<stop stop-color="#136AB4"/>
<stop offset="0.6" stop-color="#59CAF5" stop-opacity="0.54902"/>
<stop offset="1" stop-color="#59CAF5" stop-opacity="0.235294"/>
</linearGradient>
<linearGradient id="paint7_linear_201_10" x1="0.986757" y1="51.7054" x2="73.0093" y2="51.7054" gradientUnits="userSpaceOnUse">
<stop stop-color="#05A1E6" stop-opacity="0.247059"/>
<stop offset="1" stop-color="#05A1E6"/>
</linearGradient>
<linearGradient id="paint8_linear_201_10" x1="40.8753" y1="95.8634" x2="40.8753" y2="-2.86278" gradientUnits="userSpaceOnUse">
<stop stop-color="#318ED5"/>
<stop offset="1" stop-color="#38A7E4"/>
</linearGradient>
<linearGradient id="paint9_linear_201_10" x1="47.0902" y1="96.2109" x2="47.0902" y2="0.243634" gradientUnits="userSpaceOnUse">
<stop stop-color="#05A1E6"/>
<stop offset="1" stop-color="#05A1E6" stop-opacity="0.54902"/>
</linearGradient>
<linearGradient id="paint10_linear_201_10" x1="52.2498" y1="101.107" x2="52.2498" y2="20.0136" gradientUnits="userSpaceOnUse">
<stop stop-color="#1959A6"/>
<stop offset="0.5" stop-color="#05A1E6"/>
<stop offset="0.917587" stop-color="#7EC5EA"/>
<stop offset="1" stop-color="#7EC5EA"/>
</linearGradient>
<linearGradient id="paint11_linear_201_10" x1="55.3573" y1="95.9273" x2="27.8686" y2="11.9202" gradientUnits="userSpaceOnUse">
<stop stop-color="#165096"/>
<stop offset="1" stop-color="#0D82CA"/>
</linearGradient>
<linearGradient id="paint12_linear_201_10" x1="199.213" y1="46.2007" x2="199.213" y2="0.249841" gradientUnits="userSpaceOnUse">
<stop stop-color="#05A1E6"/>
<stop offset="0.873627" stop-color="#0495D6"/>
<stop offset="1" stop-color="#0495D6"/>
</linearGradient>
<linearGradient id="paint13_linear_201_10" x1="220.812" y1="-3.9972" x2="177.986" y2="91.0895" gradientUnits="userSpaceOnUse">
<stop stop-color="#38A7E4" stop-opacity="0.329412"/>
<stop offset="0.961533" stop-color="#0E88D3"/>
<stop offset="1" stop-color="#0E88D3"/>
</linearGradient>
<linearGradient id="paint14_linear_201_10" x1="204.086" y1="-0.278957" x2="204.086" y2="99.9681" gradientUnits="userSpaceOnUse">
<stop stop-color="#168CD4"/>
<stop offset="0.5" stop-color="#1C87CC"/>
<stop offset="1" stop-color="#154B8D"/>
</linearGradient>
<linearGradient id="paint15_linear_201_10" x1="76.2208" y1="-2.33971" x2="76.6552" y2="8.17396" gradientUnits="userSpaceOnUse">
<stop stop-color="#97D6EE"/>
<stop offset="0.703293" stop-color="#55C1EA"/>
<stop offset="1" stop-color="#55C1EA"/>
</linearGradient>
<linearGradient id="paint16_linear_201_10" x1="89.572" y1="9.15836" x2="91.5356" y2="-1.97851" gradientUnits="userSpaceOnUse">
<stop stop-color="#7ACCEC"/>
<stop offset="1" stop-color="#3FB7ED"/>
</linearGradient>
<linearGradient id="paint17_linear_201_10" x1="190.515" y1="5.26448" x2="190.515" y2="103.316" gradientUnits="userSpaceOnUse">
<stop stop-color="#1DA7E7"/>
<stop offset="1" stop-color="#37ABE7" stop-opacity="0"/>
</linearGradient>
<clipPath id="clip0_201_10">
<rect width="256" height="244" fill="white"/>
</clipPath>
</defs>
</svg>
