<svg width="349" height="202" viewBox="0 0 349 202" fill="none" xmlns="http://www.w3.org/2000/svg">
<g clip-path="url(#clip0_201_66)">
<path d="M349 196.762C336.305 199.981 328.453 196.903 321.409 186.35L271.305 117.194L264.062 107.618L205.55 186.58C198.865 196.08 191.853 200.211 179.375 196.85L254.301 96.5097L184.545 5.87276C196.541 3.54606 204.83 4.729 212.191 15.4485L264.159 85.4663L316.509 15.8298C323.215 6.32975 330.426 2.72088 342.467 6.22007L315.42 41.9954L278.775 89.5975C274.412 95.0369 275.011 98.7606 279.026 104.012L349 196.762ZM0.0889952 94.8332L6.21658 64.7584C22.9032 5.24082 91.2855 -19.4912 138.445 17.2843C166.005 38.914 172.855 69.5111 171.491 103.785H16.1422C13.81 165.478 58.318 202.71 115.06 183.715C134.964 177.046 146.688 161.495 152.556 142.044C155.535 132.295 160.461 130.77 169.646 133.557C164.958 157.887 154.378 178.211 132.019 190.93C98.6146 209.97 50.9288 203.812 25.8479 177.351C10.9045 161.997 4.73245 142.545 1.96313 121.74C1.52601 118.301 0.654377 115.027 0 111.731C0.0575851 106.101 0.0889952 100.474 0.0889952 94.8436V94.8332ZM16.4249 90.6994H156.81C155.893 46.09 128.051 14.404 89.9977 14.135C48.2276 13.8086 18.2336 44.7399 16.4222 90.6994H16.4249Z" fill="white"/>
</g>
<defs>
<clipPath id="clip0_201_66">
<rect width="349" height="202" fill="white"/>
</clipPath>
</defs>
</svg>
