<svg width="512" height="511" viewBox="0 0 512 511" fill="none" xmlns="http://www.w3.org/2000/svg">
<g clip-path="url(#clip0_166_2)">
<path d="M512 256C512 114.615 397.385 0 256 0C114.615 0 0 114.615 0 256C0 376.059 82.652 476.797 194.157 504.461V334.229H141.367V256H194.157V222.291C194.157 135.157 233.589 94.77 319.134 94.77C335.352 94.77 363.336 97.95 374.785 101.13V172.046C368.743 171.411 358.248 171.092 345.21 171.092C303.233 171.092 287.014 186.993 287.014 228.333V256H370.633L356.268 334.229H287.014V510.125C413.771 494.815 512 386.885 512 256Z" fill="#EEC8FF"/>
</g>
<defs>
<clipPath id="clip0_166_2">
<rect width="512" height="510.125" fill="white"/>
</clipPath>
</defs>
</svg>
