<svg width="512" height="512" viewBox="0 0 512 512" fill="none" xmlns="http://www.w3.org/2000/svg">
<path d="M170.663 256.157C170.58 209.036 208.718 170.757 255.83 170.675C302.951 170.583 341.237 208.704 341.329 255.834C341.42 302.964 303.282 341.234 256.153 341.326C209.041 341.416 170.754 303.287 170.663 256.157ZM124.555 256.249C124.696 328.851 183.661 387.576 256.245 387.434C328.837 387.294 387.595 328.345 387.454 255.743C387.313 183.166 328.34 124.407 255.739 124.549C183.154 124.69 124.414 183.663 124.555 256.249ZM361.659 119.157C361.692 136.111 375.476 149.839 392.431 149.806C409.392 149.772 423.12 135.995 423.095 119.041C423.062 102.087 409.277 88.3508 392.315 88.3848C375.353 88.4178 361.626 102.203 361.659 119.157ZM152.963 464.557C128.005 463.471 114.452 459.323 105.42 455.848C93.4586 451.22 84.9237 445.671 75.9407 436.755C66.9747 427.804 61.4086 419.294 56.7386 407.358C53.2306 398.325 49.0086 384.789 47.8386 359.831C46.5696 332.848 46.2796 324.753 46.1556 256.398C46.0226 188.06 46.2716 179.964 47.4496 152.957C48.5186 128.016 52.6916 114.445 56.1586 105.421C60.7866 93.4437 66.3196 84.9247 75.2526 75.9427C84.2016 66.9597 92.7116 61.4107 104.656 56.7407C113.681 53.2147 127.217 49.0257 152.167 47.8407C179.165 46.5627 187.252 46.2897 255.59 46.1567C323.943 46.0237 332.038 46.2647 359.046 47.4507C383.986 48.5367 397.556 52.6677 406.573 56.1597C418.541 60.7877 427.076 66.3047 436.051 75.2537C445.025 84.2037 450.591 92.6967 455.261 104.667C458.785 113.666 462.975 127.219 464.153 152.161C465.438 179.159 465.729 187.255 465.853 255.593C465.985 323.948 465.736 332.044 464.551 359.035C463.464 383.992 459.325 397.555 455.842 406.595C451.213 418.548 445.681 427.083 436.739 436.066C427.798 445.015 419.288 450.597 407.336 455.267C398.327 458.784 384.775 462.981 359.842 464.167C332.844 465.436 324.756 465.727 256.394 465.851C188.056 465.984 179.97 465.727 152.963 464.557ZM149.977 1.77275C122.738 3.05875 104.134 7.42075 87.8756 13.7917C71.0466 20.3527 56.7806 29.1447 42.5896 43.3947C28.3806 57.6527 19.6546 71.9437 13.1436 88.7897C6.84065 105.089 2.56865 123.702 1.36565 150.958C0.171647 178.264 -0.102353 186.973 0.0306468 256.489C0.163647 325.997 0.469647 334.723 1.77165 362.037C3.07365 389.268 7.42065 407.864 13.7906 424.129C20.3596 440.959 29.1436 455.218 43.4016 469.418C57.6516 483.618 71.9516 492.336 88.8056 498.856C105.088 505.15 123.708 509.439 150.956 510.633C178.261 511.836 186.978 512.101 256.477 511.969C326.009 511.836 334.727 511.529 362.032 510.235C389.271 508.933 407.858 504.571 424.132 498.216C440.961 491.631 455.227 482.863 469.42 468.605C483.611 454.354 492.337 440.055 498.848 423.201C505.152 406.919 509.44 388.297 510.625 361.067C511.82 333.744 512.103 325.018 511.969 255.51C511.836 185.994 511.522 177.285 510.228 149.988C508.934 122.732 504.571 104.144 498.209 87.8698C491.632 71.0408 482.857 56.7897 468.607 42.5817C454.357 28.3897 440.057 19.6467 423.203 13.1528C406.913 6.84875 388.3 2.55275 361.053 1.37475C333.747 0.16375 325.03 -0.10125 255.506 0.0307501C185.999 0.16375 177.282 0.46175 149.977 1.77275Z" fill="#EEC8FF"/>
</svg>
