<svg width="512" height="512" viewBox="0 0 512 512" fill="none" xmlns="http://www.w3.org/2000/svg">
<g clip-path="url(#clip0_166_9)">
<path d="M0 256C0 365.29 68.5 458.6 164.91 495.32C162.56 475.33 160.07 442.37 165.44 419.25C170.07 399.36 195.33 292.57 195.33 292.57C195.33 292.57 187.71 277.32 187.71 254.72C187.71 219.31 208.24 192.85 233.82 192.85C255.58 192.85 266.07 209.18 266.07 228.74C266.07 250.61 252.14 283.29 244.95 313.61C238.96 338.97 257.69 359.66 282.69 359.66C327.98 359.66 362.82 311.89 362.82 242.95C362.82 181.91 318.96 139.27 256.34 139.27C183.86 139.27 141.3 193.65 141.3 249.86C141.3 271.77 149.72 295.24 160.26 308.02C161.592 309.428 162.332 311.292 162.33 313.23C162.33 313.93 162.23 314.64 162.04 315.32C160.1 323.39 155.78 340.69 154.96 344.22C153.83 348.87 151.27 349.88 146.42 347.62C114.6 332.81 94.71 286.28 94.71 248.91C94.71 168.5 153.11 94.69 263.07 94.69C351.48 94.69 420.2 157.69 420.2 241.87C420.2 329.7 364.83 400.4 287.95 400.4C262.11 400.4 237.86 386.95 229.54 371.1C229.54 371.1 216.76 419.78 213.66 431.69C207.65 454.82 190.96 484.08 180.62 500.7C204.46 508.06 229.76 512 256 512C397.38 512 512 397.37 512 256C512 114.63 397.38 0 256 0C114.62 0 0 114.62 0 256Z" fill="#EEC8FF"/>
</g>
<defs>
<clipPath id="clip0_166_9">
<rect width="512" height="512" fill="white"/>
</clipPath>
</defs>
</svg>
