<svg width="592" height="417" viewBox="0 0 592 417" fill="none" xmlns="http://www.w3.org/2000/svg">
<path fill-rule="evenodd" clip-rule="evenodd" d="M585.958 89.8388C585.958 89.8388 580.179 49.0324 562.392 31.1151C539.854 7.54892 514.616 7.3963 503.078 6.031C420.297 -3.08752e-06 295.967 0 295.967 0H295.749C295.749 0 171.473 -3.08752e-06 88.6477 6.031C77.0667 7.43977 51.8623 7.53874 29.334 31.1151C11.537 49.0324 5.87781 89.8388 5.87781 89.8388C5.87781 89.8388 -0.0107422 137.724 -0.0107422 185.709V230.579C-0.0107422 278.465 5.87781 326.449 5.87781 326.449C5.87781 326.449 11.6572 367.255 29.334 385.205C51.8623 408.771 81.4697 408.006 94.6898 410.52C142.084 415.043 296.011 416.408 296.011 416.408C296.011 416.408 420.45 416.189 503.231 410.268C514.812 408.902 540.005 408.76 562.545 385.183C580.342 367.266 586.11 326.416 586.11 326.416C586.11 326.416 592 278.531 592 230.546V185.676C591.88 137.79 585.991 89.8064 585.991 89.8064L585.958 89.8388ZM234.643 285.02V118.639L394.568 202.108L234.643 285.02Z" fill="#EEC8FF"/>
</svg>
